<svg xmlns="http://www.w3.org/2000/svg" version="1.1" xmlns:xlink="http://www.w3.org/1999/xlink"
  xmlns:svgjs="http://svgjs.dev/svgjs" width="2000" height="414" viewBox="0 0 2000 414">
  <g transform="matrix(1,0,0,1,-1.2121212121212466,-0.9404979888066123)">
    <svg viewBox="0 0 396 82" data-background-color="#ffffff" preserveAspectRatio="xMidYMid meet"
      height="414" width="2000" xmlns="http://www.w3.org/2000/svg"
      xmlns:xlink="http://www.w3.org/1999/xlink">
      <g id="tight-bounds" transform="matrix(1,0,0,1,0.2400000000000091,0.18628221034333592)">
        <svg viewBox="0 0 395.52 81.6274355793133" height="81.6274355793133" width="395.52">
          <g>
            <svg viewBox="0 0 516.5207381463014 106.59957341832668" height="81.6274355793133"
              width="395.52">
              <g transform="matrix(1,0,0,1,121.0007381463014,14.34308020185923)">
                <svg viewBox="0 0 395.52 77.91341301460822" height="77.91341301460822"
                  width="395.52">
                  <g id="textblocktransform">
                    <svg viewBox="0 0 395.52 77.91341301460822" height="77.91341301460822"
                      width="395.52" id="textblock">
                      <g>
                        <svg viewBox="0 0 395.52 77.91341301460822" height="77.91341301460822"
                          width="395.52">
                          <g transform="matrix(1,0,0,1,0,0)">
                            <svg width="395.52" viewBox="-1.25 -41 224.58 45.5"
                              height="77.91341301460822" data-palette-color="#ed1703">
                              <g class="wordmark-text-0" data-fill-palette-color="primary"
                                id="text-0">
                                <path
                                  d="M11.3 0L2.75 0 2.75-35 27.65-35 27.65-27.6 11.25-27.6 11.25-18.9 25.5-18.9 25.5-11.75 11.3-11.75 11.3 0ZM29.8-13.65L29.8-13.65Q29.8-16.95 30.45-19.55 31.1-22.15 32.6-23.98 34.1-25.8 36.65-26.75 39.2-27.7 43-27.7L43-27.7Q46.8-27.7 49.35-26.75 51.9-25.8 53.4-23.98 54.9-22.15 55.55-19.55 56.2-16.95 56.2-13.65L56.2-13.65Q56.2-10.3 55.5-7.65 54.8-5 53.25-3.2 51.7-1.4 49.17-0.45 46.65 0.5 43 0.5L43 0.5Q39.35 0.5 36.82-0.45 34.3-1.4 32.75-3.2 31.2-5 30.5-7.65 29.8-10.3 29.8-13.65ZM38.25-13.65L38.25-13.65Q38.25-10.65 38.72-8.9 39.2-7.15 40.25-6.43 41.3-5.7 43-5.7L43-5.7Q44.75-5.7 45.77-6.43 46.8-7.15 47.3-8.9 47.8-10.65 47.8-13.65L47.8-13.65Q47.8-16.65 47.35-18.35 46.9-20.05 45.85-20.78 44.8-21.5 43-21.5L43-21.5Q41.2-21.5 40.17-20.78 39.15-20.05 38.7-18.35 38.25-16.65 38.25-13.65ZM58.8-13.65L58.8-13.65Q58.8-16.95 59.45-19.55 60.1-22.15 61.6-23.98 63.1-25.8 65.65-26.75 68.2-27.7 72-27.7L72-27.7Q75.8-27.7 78.34-26.75 80.9-25.8 82.4-23.98 83.9-22.15 84.55-19.55 85.2-16.95 85.2-13.65L85.2-13.65Q85.2-10.3 84.5-7.65 83.8-5 82.25-3.2 80.7-1.4 78.17-0.45 75.65 0.5 72 0.5L72 0.5Q68.34 0.5 65.82-0.45 63.3-1.4 61.75-3.2 60.2-5 59.5-7.65 58.8-10.3 58.8-13.65ZM67.25-13.65L67.25-13.65Q67.25-10.65 67.72-8.9 68.2-7.15 69.25-6.43 70.3-5.7 72-5.7L72-5.7Q73.75-5.7 74.77-6.43 75.8-7.15 76.3-8.9 76.8-10.65 76.8-13.65L76.8-13.65Q76.8-16.65 76.34-18.35 75.9-20.05 74.84-20.78 73.8-21.5 72-21.5L72-21.5Q70.2-21.5 69.17-20.78 68.15-20.05 67.7-18.35 67.25-16.65 67.25-13.65ZM113.44 0.05L106.24 0.05 105.29-2Q103.29-0.75 101.29-0.13 99.29 0.5 97.09 0.5L97.09 0.5Q92.64 0.5 90.22-3 87.79-6.5 87.79-13.1L87.79-13.1Q87.79-18.05 89.22-21.28 90.64-24.5 93.54-26.1 96.44-27.7 100.89-27.7L100.89-27.7Q101.89-27.7 103.02-27.63 104.14-27.55 105.19-27.35L105.19-27.35 105.19-37 113.44-37 113.44 0.05ZM105.19-7.7L105.19-7.7 105.19-21.2Q104.19-21.5 103.27-21.63 102.34-21.75 101.44-21.75L101.44-21.75Q99.69-21.75 98.54-21 97.39-20.25 96.84-18.55 96.29-16.85 96.29-13.9L96.29-13.9Q96.29-11.2 96.77-9.53 97.24-7.85 98.14-7.08 99.04-6.3 100.34-6.3L100.34-6.3Q101.09-6.3 101.87-6.45 102.64-6.6 103.47-6.93 104.29-7.25 105.19-7.7Z"
                                  fill="#ed1703" data-fill-palette-color="primary"></path>
                                <path
                                  d="M137.94 0L129.49 0 129.49-35 137.94-35 137.94-19.65 150.74-19.65 150.74-35 159.19-35 159.19 0 150.74 0 150.74-12.1 137.94-12.1 137.94 0ZM172.24 0.5L172.24 0.5Q169.84 0.5 168.04-0.38 166.24-1.25 165.21-3.1 164.19-4.95 164.19-7.7L164.19-7.7 164.19-27.2 172.39-27.2 172.39-9.65Q172.39-7.95 173.24-7.13 174.09-6.3 175.59-6.3L175.59-6.3Q176.39-6.3 177.11-6.45 177.84-6.6 178.56-6.9 179.28-7.2 180.14-7.6L180.14-7.6 180.14-27.2 188.34-27.2 188.34-8.45Q188.34-7.7 188.49-7.28 188.64-6.85 188.94-6.65 189.24-6.45 189.64-6.45L189.64-6.45Q190.19-6.45 190.69-6.7L190.69-6.7 191.39-0.8Q190.74-0.45 189.94-0.15 189.14 0.15 188.16 0.33 187.19 0.5 186.19 0.5L186.19 0.5Q184.34 0.5 183.11-0.23 181.89-0.95 181.14-2.25L181.14-2.25Q179.69-1.4 178.28-0.78 176.89-0.15 175.41 0.18 173.94 0.5 172.24 0.5ZM193.78-0.9L193.78-0.9 193.78-37 201.93-37 201.93-25.2Q203.98-26.5 205.96-27.1 207.93-27.7 209.93-27.7L209.93-27.7Q214.58-27.7 216.96-24.3 219.33-20.9 219.33-14.25L219.33-14.25Q219.33-9 217.91-5.75 216.48-2.5 213.41-1 210.33 0.5 205.38 0.5L205.38 0.5Q202.93 0.5 199.96 0.13 196.98-0.25 193.78-0.9ZM201.93-19.4L201.93-5.9Q202.98-5.65 203.93-5.5 204.88-5.35 205.68-5.35L205.68-5.35Q207.48-5.35 208.63-6.13 209.78-6.9 210.33-8.72 210.88-10.55 210.88-13.65L210.88-13.65Q210.88-16.25 210.43-17.82 209.98-19.4 209.08-20.15 208.18-20.9 206.83-20.9L206.83-20.9Q206.08-20.9 205.33-20.75 204.58-20.6 203.76-20.25 202.93-19.9 201.93-19.4L201.93-19.4Z"
                                  fill="#ed1703" data-fill-palette-color="primary"></path>
                              </g>
                            </svg>
                          </g>
                        </svg>
                      </g>
                    </svg>
                  </g>
                </svg>
              </g>
              <g>
                <svg viewBox="0 0 105.50060874391096 106.59957341832668" height="106.59957341832668"
                  width="105.50060874391096">
                  <g>
                    <svg xmlns="http://www.w3.org/2000/svg"
                      xmlns:xlink="http://www.w3.org/1999/xlink" version="1.1" x="0" y="0"
                      viewBox="7 7 96 97" enable-background="new 0 0 110 110" xml:space="preserve"
                      height="106.59957341832668" width="105.50060874391096" class="icon-icon-0"
                      data-fill-palette-color="accent" id="icon-0"><g fill="#ed1703" data-fill-palette-color="accent"><path d="M92 61C91.77 61 91.54 61.01 91.32 61.02 91.17 61.031 91.019 61.041 90.87 61.06 90.7 61.071 90.519 61.1 90.34 61.13 90.21 61.14 90.09 61.17 89.96 61.191 89.84 61.211 89.731 61.241 89.61 61.26 89.58 61.27 89.549 61.27 89.519 61.281 89.509 61.281 89.499 61.291 89.49 61.291 88.95 61.411 88.42 61.581 87.92 61.781 87.77 61.841 87.63 61.901 87.49 61.961 87.46 61.982 87.44 61.991 87.42 61.991 87.29 62.06 87.16 62.121 87.03 62.191 86.8 62.3 86.59 62.42 86.38 62.55 86.2 62.651 86.02 62.77 85.85 62.88 85.821 62.91 85.781 62.93 85.75 62.95 85.57 63.07 85.4 63.2 85.23 63.33 85.059 63.47 84.889 63.61 84.73 63.75 84.57 63.89 84.41 64.04 84.259 64.19 84.119 64.32 83.989 64.46 83.86 64.599A0.3 0.3 0 0 1 83.809 64.66C83.669 64.82 83.53 64.98 83.4 65.15 83.259 65.32 83.129 65.49 83.009 65.67L67.509 58.54C67.519 58.51 67.53 58.48 67.53 58.45 67.559 58.32 67.599 58.2 67.63 58.07S67.7 57.809 67.72 57.679C67.77 57.45 67.81 57.219 67.85 56.98V56.959C67.88 56.779 67.901 56.599 67.92 56.419 67.93 56.369 67.93 56.309 67.941 56.249 67.961 56.069 67.97 55.899 67.981 55.719 67.99 55.48 68 55.24 68 55S67.99 54.52 67.98 54.29C67.969 54.12 67.959 53.96 67.94 53.79 67.919 53.53 67.889 53.27 67.849 53.02 67.82 52.85 67.799 52.69 67.759 52.52A2 2 0 0 0 67.709 52.27C67.669 52.06 67.619 51.84 67.559 51.64 67.519 51.47 67.469 51.3 67.41 51.13A9 9 0 0 0 67.21 50.53C67.11 50.26 67.01 50 66.89 49.74 66.8 49.54 66.71 49.35 66.62 49.16L66.559 49.04C66.549 49.03 66.539 49.02 66.539 49.01 66.369 48.69 66.199 48.38 65.999 48.09 65.889 47.91 65.769 47.74 65.649 47.56V47.55C65.649 47.54 65.638 47.54 65.638 47.53 65.449 47.27 65.258 47.01 65.058 46.77 65.048 46.75 65.038 46.74 65.029 46.73 64.829 46.49 64.619 46.26 64.409 46.04A10 10 0 0 0 63.969 45.6C63.74 45.38 63.509 45.17 63.269 44.97 63.12 44.85 62.969 44.73 62.82 44.62 62.69 44.52 62.559 44.42 62.429 44.34 62.32 44.25 62.209 44.18 62.089 44.11 62.069 44.1 62.049 44.08 62.029 44.07A6 6 0 0 0 61.468 43.73C61.439 43.71 61.408 43.7 61.378 43.68 61.268 43.61 61.158 43.55 61.048 43.49L66.718 26.91C66.918 26.94 67.118 26.96 67.319 26.98H67.359C67.57 26.99 67.78 27 68 27 73.53 27 78 22.52 78 17S73.53 7 68 7C62.48 7 58 11.48 58 17 58 17.2 58 17.39 58.02 17.58 58.031 17.77 58.041 17.96 58.071 18.15 58.081 18.28 58.1 18.4 58.121 18.52 58.171 18.85 58.241 19.18 58.321 19.5S58.501 20.14 58.621 20.45C58.721 20.75 58.85 21.05 58.991 21.33 59.051 21.46 59.111 21.58 59.171 21.7 59.201 21.75 59.232 21.8 59.251 21.85 59.321 21.96 59.381 22.07 59.451 22.18 59.621 22.46 59.801 22.73 59.991 22.98 60.071 23.09 60.151 23.2 60.241 23.3 60.261 23.34 60.291 23.37 60.321 23.41L60.6 23.72C60.81 23.96 61.04 24.19 61.281 24.4 61.361 24.48 61.451 24.56 61.541 24.63 61.701 24.76 61.861 24.89 62.02 25.01 62.111 25.08 62.201 25.15 62.3 25.21 62.46 25.33 62.64 25.44 62.821 25.55 62.861 25.57 62.901 25.6 62.941 25.62L57.27 42.2 56.89 42.14C56.701 42.11 56.52 42.09 56.33 42.07A15 15 0 0 0 55 42C54.55 42 54.11 42.02 53.67 42.07 53.51 42.08 53.36 42.1 53.2 42.13 53.05 42.14 52.89 42.17 52.74 42.2 52.54 42.23 52.33 42.27 52.13 42.32 52.04 42.34 51.96 42.36 51.88 42.38S51.72 42.42 51.63 42.45C51.6 42.46 51.57 42.47 51.53 42.47 51.42 42.5 51.32 42.53 51.21 42.57 51.19 42.57 51.16 42.58 51.14 42.59 51.13 42.58 51.12 42.6 51.12 42.6 50.94 42.65 50.77 42.71 50.59 42.77 50.57 42.78 50.55 42.78 50.53 42.79 50.38 42.84 50.24 42.9 50.1 42.96L49.68 43.14C49.6 43.17 49.53 43.2 49.46 43.24 49.38 43.28 49.3 43.32 49.23 43.35 49.08 43.42 48.94 43.5 48.8 43.57 48.44 43.76 48.09 43.98 47.75 44.21 47.57 44.33 47.39 44.46 47.22 44.59 47.12 44.66 47.02 44.74 46.92 44.82 46.91 44.83 46.89 44.84 46.88 44.86 46.78 44.92 46.7 45 46.61 45.08 46.36 45.29 46.12 45.51 45.89 45.74A0.5 0.5 0 0 0 45.81 45.81C45.6 46.02 45.39 46.24 45.2 46.47 45.18 46.49 45.16 46.5 45.15 46.52L25.64 34.39 25.67 34.28C25.72 34.13 25.76 33.97 25.79 33.82 25.84 33.62 25.88 33.42 25.91 33.22 25.97 32.82 26 32.42 26 32 26 27.58 22.42 24 18 24S10 27.58 10 32A8 8 0 0 0 18.79 39.96H18.82C19.06 39.93 19.3 39.9 19.53 39.85 19.56 39.85 19.59 39.84 19.61 39.84 19.85 39.79 20.08 39.73 20.31 39.66 20.59 39.58 20.86 39.48 21.12 39.37 21.31 39.29 21.49 39.2 21.67 39.1 21.72 39.09 21.76 39.06 21.81 39.03 21.99 38.94 22.16 38.84 22.33 38.72 22.38 38.7 22.43 38.66 22.47 38.63 22.62 38.53 22.76 38.43 22.9 38.32 23.12 38.16 23.32 37.98 23.52 37.79L43.03 49.92C42.93 50.14 42.85 50.37 42.77 50.6 42.7 50.78 42.64 50.95 42.59 51.13 42.54 51.29 42.49 51.44 42.46 51.59 42.43 51.69 42.4 51.79 42.38 51.89 42.29 52.22 42.23 52.56 42.17 52.9 42.13 53.17 42.09 53.43 42.07 53.7 42.04 53.91 42.03 54.12 42.02 54.33 42.01 54.55 42 54.78 42 55S42.01 55.45 42.02 55.67C42.03 55.84 42.04 56 42.06 56.17 42.07 56.32 42.08 56.47 42.11 56.62 42.13 56.809 42.15 56.98 42.18 57.16 42.18 57.18 42.19 57.21 42.19 57.23 42.2 57.299 42.21 57.36 42.23 57.419 42.27 57.649 42.32 57.879 42.38 58.109 42.41 58.249 42.45 58.388 42.49 58.518L42.52 58.638C42.54 58.718 42.56 58.788 42.59 58.868 42.65 59.057 42.71 59.238 42.78 59.428L42.81 59.518C42.91 59.789 43.01 60.048 43.13 60.298 43.14 60.328 43.15 60.348 43.16 60.378S43.19 60.439 43.2 60.458C43.27 60.618 43.35 60.768 43.43 60.918V60.928C43.43 60.939 43.44 60.939 43.44 60.949L25.55 74.01A10.93 10.93 0 0 0 18 71C11.93 71 7 75.92 7 82S11.93 93 18 93C24.08 93 29 88.08 29 82 29 80.29 28.61 78.68 27.92 77.24L45.81 64.19C46.05 64.429 46.3 64.66 46.56 64.879 46.68 64.989 46.82 65.099 46.95 65.199 47.08 65.308 47.22 65.409 47.36 65.509 47.44 65.579 47.53 65.639 47.62 65.699S47.8 65.819 47.9 65.879C47.91 65.889 47.91 65.9 47.92 65.9 48.03 65.969 48.15 66.049 48.26 66.11 48.39 66.19 48.53 66.269 48.67 66.349 48.84 66.45 49.02 66.539 49.2 66.629S49.56 66.809 49.75 66.889C49.93 66.969 50.12 67.049 50.31 67.119 50.44 67.179 50.58 67.229 50.71 67.268 50.74 67.279 50.76 67.289 50.79 67.298 51.25 67.458 51.73 67.588 52.21 67.698L52.66 67.788C52.81 67.818 52.96 67.838 53.11 67.858A13 13 0 0 0 54.3 67.978C54.39 67.978 54.47 67.988 54.56 67.988L57.07 88.557C56.889 88.627 56.71 88.707 56.53 88.787A8 8 0 0 0 55.15 89.637C55.07 89.698 54.99 89.757 54.91 89.827 54.76 89.947 54.62 90.077 54.48 90.207 54.38 90.297 54.3 90.387 54.21 90.478 54.08 90.618 53.95 90.757 53.83 90.908 53.75 90.998 53.68 91.097 53.61 91.188 53.59 91.198 53.58 91.217 53.57 91.228 53.5 91.328 53.43 91.427 53.37 91.528 53.29 91.628 53.22 91.738 53.16 91.847 53.09 91.957 53.03 92.068 52.97 92.188A8 8 0 0 0 52.71 92.708C52.63 92.878 52.56 93.058 52.49 93.248 52.44 93.368 52.4 93.488 52.36 93.618 52.29 93.828 52.24 94.048 52.19 94.258 52.15 94.418 52.12 94.588 52.1 94.748 52.08 94.818 52.08 94.888 52.07 94.958L52.04 95.178C52.04 95.208 52.04 95.229 52.03 95.258 52.03 95.348 52.02 95.428 52.02 95.518 52.01 95.579 52.01 95.628 52.01 95.689V95.758C52 95.84 52 95.92 52 96 52 100.42 55.58 104 60 104S68 100.42 68 96C68 95.75 67.99 95.5 67.96 95.25 67.95 95.12 67.94 95 67.92 94.88L67.86 94.52A5.5 5.5 0 0 0 67.69 93.81 5 5 0 0 0 67.46 93.121 7 7 0 0 0 66.92 91.991 3 3 0 0 0 66.72 91.671C66.63 91.531 66.54 91.401 66.441 91.261 66.35 91.141 66.26 91.032 66.17 90.911L66.14 90.881C66.071 90.791 66 90.711 65.92 90.621 65.82 90.511 65.71 90.401 65.61 90.291 65.54 90.221 65.46 90.151 65.38 90.081 65.24 89.951 65.09 89.821 64.941 89.711 64.791 89.591 64.63 89.482 64.47 89.371 64.38 89.301 64.29 89.241 64.191 89.181 64.151 89.161 64.111 89.131 64.071 89.121 63.911 89.02 63.751 88.931 63.581 88.85 63.431 88.77 63.281 88.701 63.121 88.63 62.881 88.53 62.631 88.441 62.381 88.36 62.181 88.299 61.982 88.24 61.771 88.2 61.692 88.179 61.622 88.16 61.542 88.15 61.462 88.129 61.372 88.12 61.292 88.099L61.052 88.07 58.54 67.51C58.4 67.55 58.25 67.59 58.11 67.62A28 28 0 0 0 59.1 67.33C59.3 67.26 59.5 67.2 59.691 67.12 59.89 67.04 60.081 66.96 60.281 66.88 60.591 66.74 60.901 66.59 61.201 66.43 61.211 66.42 61.221 66.42 61.241 66.41 61.56 66.23 61.871 66.04 62.171 65.84 62.271 65.77 62.381 65.7 62.482 65.63 62.582 65.56 62.681 65.49 62.782 65.41 62.992 65.26 63.192 65.09 63.391 64.93 63.671 64.691 63.931 64.451 64.192 64.191 64.332 64.05 64.471 63.911 64.601 63.76 64.921 63.41 65.232 63.031 65.511 62.64 65.631 62.491 65.741 62.33 65.841 62.17L81.341 69.3C81.291 69.51 81.241 69.71 81.201 69.92 81.161 70.12 81.131 70.31 81.111 70.51 81.09 70.63 81.071 70.75 81.06 70.87 81.04 71.019 81.031 71.17 81.02 71.309V71.32C81.01 71.54 81 71.77 81 72 81 78.08 85.93 83 92 83 98.08 83 103 78.08 103 72S98.08 61 92 61M59.77 16.35C59.191 15.77 59.85 12.78 62.1 10.53S67.34 7.62 67.92 8.2 65.75 9.67 63.5 11.93C61.25 14.18 60.35 16.93 59.77 16.35M14.1 28.1C12.4 29.8 11.72 31.88 11.29 31.44 10.85 31.01 11.35 28.75 13.05 27.05S17.01 24.85 17.44 25.29C17.88 25.72 15.8 26.4 14.1 28.1M12.67 76.67C10.39 78.95 9.48 81.74 8.9 81.16 8.31 80.57 8.98 77.54 11.26 75.26 13.54 72.981 16.57 72.31 17.16 72.901 17.74 73.48 14.95 74.39 12.67 76.67M53.68 46.09C52.61 46.8 50.97 47.76 49.45 49.19 49.32 49.31 49.19 49.43 49.06 49.56 48.16 50.46 47.43 51.42 46.84 52.29 46.59 52.64 46.36 52.98 46.16 53.3 45.23 54.73 44.68 55.69 44.26 55.27 43.78 54.79 43.95 53.04 44.9 51.08 45.43 49.99 46.2 48.83 47.22 47.8L47.26 47.76C50.16 44.86 54.02 44.01 54.77 44.76 55.1 45.09 54.59 45.49 53.68 46.09M59.44 89.79C59.769 90.11 58.7 90.57 57.429 91.48 57 91.8 56.53 92.17 56.1 92.6 54.4 94.3 53.73 96.38 53.29 95.941 52.85 95.51 53.35 93.251 55.05 91.55A7.2 7.2 0 0 1 57.26 90.05C58.3 89.6 59.19 89.53 59.44 89.79M88.2 66.12C88.19 66.13 88.179 66.14 88.17 66.14L87.47 66.76 87.25 66.95 87.1 67.099C87 67.2 86.9 67.3 86.8 67.41 86.571 67.66 86.35 67.91 86.14 68.17 86.14 68.18 86.13 68.191 86.12 68.2 85.38 69.12 84.809 70.03 84.38 70.7 83.84 71.53 83.49 72 83.21 71.72 82.981 71.491 82.93 70.89 83.1 70.111 83.31 69.1 83.88 67.76 84.861 66.52 85.1 66.22 85.361 65.92 85.64 65.64 87.991 63.29 91.12 62.6 91.72 63.21 92.23 63.72 90.24 64.47 88.2 66.12" fill="#ed1703" data-fill-palette-color="accent"></path></g></svg>
                  </g>
                </svg>
              </g>
            </svg>
          </g>
          <defs></defs>
        </svg>
        <rect width="395.52" height="81.6274355793133" fill="none" stroke="none" visibility="hidden"></rect>
      </g>
    </svg>
  </g>
</svg>