<svg xmlns="http://www.w3.org/2000/svg" version="1.1" xmlns:xlink="http://www.w3.org/1999/xlink"
  xmlns:svgjs="http://svgjs.dev/svgjs" width="2000" height="474" viewBox="0 0 2000 474">
  <g transform="matrix(1,0,0,1,-1.2121212121212466,1.1711244012565487)">
    <svg viewBox="0 0 396 94" data-background-color="#ffffff" preserveAspectRatio="xMidYMid meet"
      height="474" width="2000" xmlns="http://www.w3.org/2000/svg"
      xmlns:xlink="http://www.w3.org/1999/xlink">
      <g id="tight-bounds" transform="matrix(1,0,0,1,0.2400000000000091,-0.23224829898336452)">
        <svg viewBox="0 0 395.52 94.46449659796671" height="94.46449659796671" width="395.52">
          <g>
            <svg viewBox="0 0 504.1334574753133 120.40532281198912" height="94.46449659796671"
              width="395.52">
              <g transform="matrix(1,0,0,1,108.61345747531337,20.237538790190747)">
                <svg viewBox="0 0 395.52 79.93024523160763" height="79.93024523160763"
                  width="395.52">
                  <g id="textblocktransform">
                    <svg viewBox="0 0 395.52 79.93024523160763" height="79.93024523160763"
                      width="395.52" id="textblock">
                      <g>
                        <svg viewBox="0 0 395.52 79.93024523160763" height="79.93024523160763"
                          width="395.52">
                          <g transform="matrix(1,0,0,1,0,0)">
                            <svg width="395.52"
                              viewBox="-0.9500000000000002 -41 221.17999999999998 45.5"
                              height="79.93024523160763" data-palette-color="#ed1703">
                              <path
                                d="M10 0L3.05 0 3.05-35 26.9-35 26.9-28.9 9.95-28.9 9.95-18.65 24.65-18.65 24.65-12.7 10-12.7 10 0ZM29.3-13.55L29.3-13.55Q29.3-17 29.92-19.6 30.55-22.2 32-23.95 33.45-25.7 35.87-26.63 38.3-27.55 41.9-27.55L41.9-27.55Q45.55-27.55 47.97-26.63 50.4-25.7 51.85-23.95 53.3-22.2 53.92-19.6 54.55-17 54.55-13.55L54.55-13.55Q54.55-10.1 53.87-7.45 53.2-4.8 51.7-3.05 50.2-1.3 47.8-0.4 45.4 0.5 41.9 0.5L41.9 0.5Q38.45 0.5 36.05-0.4 33.65-1.3 32.15-3.05 30.65-4.8 29.97-7.45 29.3-10.1 29.3-13.55ZM36.1-13.55L36.1-13.55Q36.1-10.2 36.7-8.22 37.3-6.25 38.6-5.4 39.9-4.55 41.9-4.55L41.9-4.55Q44-4.55 45.27-5.4 46.55-6.25 47.12-8.22 47.7-10.2 47.7-13.55L47.7-13.55Q47.7-16.9 47.17-18.85 46.65-20.8 45.37-21.65 44.1-22.5 41.9-22.5L41.9-22.5Q39.75-22.5 38.47-21.65 37.2-20.8 36.65-18.85 36.1-16.9 36.1-13.55ZM57.64-13.55L57.64-13.55Q57.64-17 58.27-19.6 58.89-22.2 60.34-23.95 61.8-25.7 64.22-26.63 66.64-27.55 70.25-27.55L70.25-27.55Q73.89-27.55 76.32-26.63 78.75-25.7 80.19-23.95 81.64-22.2 82.27-19.6 82.89-17 82.89-13.55L82.89-13.55Q82.89-10.1 82.22-7.45 81.55-4.8 80.05-3.05 78.55-1.3 76.14-0.4 73.75 0.5 70.25 0.5L70.25 0.5Q66.8 0.5 64.39-0.4 61.99-1.3 60.49-3.05 58.99-4.8 58.32-7.45 57.64-10.1 57.64-13.55ZM64.44-13.55L64.44-13.55Q64.44-10.2 65.05-8.22 65.64-6.25 66.94-5.4 68.25-4.55 70.25-4.55L70.25-4.55Q72.34-4.55 73.62-5.4 74.89-6.25 75.47-8.22 76.05-10.2 76.05-13.55L76.05-13.55Q76.05-16.9 75.52-18.85 75-20.8 73.72-21.65 72.44-22.5 70.25-22.5L70.25-22.5Q68.09-22.5 66.82-21.65 65.55-20.8 65-18.85 64.44-16.9 64.44-13.55ZM110.14 0.05L104.29 0.05 103.49-2.15Q101.39-0.8 99.37-0.15 97.34 0.5 95.14 0.5L95.14 0.5Q90.74 0.5 88.37-2.98 85.99-6.45 85.99-13L85.99-13Q85.99-18 87.34-21.2 88.69-24.4 91.52-25.98 94.34-27.55 98.64-27.55L98.64-27.55Q99.79-27.55 101.02-27.45 102.24-27.35 103.44-27.1L103.44-27.1 103.44-37 110.14-37 110.14 0.05ZM103.44-6.9L103.44-6.9 103.44-22.05Q102.19-22.4 101.14-22.53 100.09-22.65 99.14-22.65L99.14-22.65Q96.99-22.65 95.62-21.8 94.24-20.95 93.57-18.95 92.89-16.95 92.89-13.6L92.89-13.6Q92.89-10.65 93.47-8.75 94.04-6.85 95.12-5.95 96.19-5.05 97.74-5.05L97.74-5.05Q98.64-5.05 99.54-5.25 100.44-5.45 101.39-5.85 102.34-6.25 103.44-6.9ZM135.99 0L129.14 0 129.14-35 135.99-35 135.99-18.75 150.89-18.75 150.89-35 157.74-35 157.74 0 150.89 0 150.89-12.6 135.99-12.6 135.99 0ZM171.14 0.5L171.14 0.5Q168.79 0.5 167.04-0.35 165.29-1.2 164.34-2.95 163.39-4.7 163.39-7.35L163.39-7.35 163.39-27.05 170.04-27.05 170.04-8.9Q170.04-7 171.01-6.03 171.99-5.05 173.79-5.05L173.79-5.05Q174.79-5.05 175.69-5.25 176.59-5.45 177.49-5.83 178.39-6.2 179.39-6.7L179.39-6.7 179.39-27.05 186.04-27.05 186.04-7.45Q186.04-6.6 186.21-6.1 186.39-5.6 186.74-5.38 187.09-5.15 187.54-5.15L187.54-5.15Q188.14-5.15 188.74-5.4L188.74-5.4 189.29-0.65Q188.74-0.3 188.04-0.05 187.34 0.2 186.51 0.35 185.69 0.5 184.79 0.5L184.79 0.5Q183.14 0.5 181.99-0.23 180.84-0.95 180.19-2.3L180.19-2.3Q178.74-1.45 177.29-0.8 175.84-0.15 174.34 0.18 172.84 0.5 171.14 0.5ZM192.08-0.8L192.08-0.8 192.08-37 198.73-37 198.73-24.9Q200.83-26.25 202.86-26.9 204.88-27.55 206.93-27.55L206.93-27.55Q211.48-27.55 213.86-24.15 216.23-20.75 216.23-14.2L216.23-14.2Q216.23-9 214.83-5.75 213.43-2.5 210.48-1 207.53 0.5 202.83 0.5L202.83 0.5Q200.53 0.5 197.83 0.15 195.13-0.2 192.08-0.8ZM198.73-20.1L198.73-4.85Q199.98-4.6 201.03-4.45 202.08-4.3 203.03-4.3L203.03-4.3Q205.23-4.3 206.61-5.2 207.98-6.1 208.66-8.18 209.33-10.25 209.33-13.7L209.33-13.7Q209.33-16.6 208.78-18.4 208.23-20.2 207.16-21.1 206.08-22 204.48-22L204.48-22Q203.58-22 202.68-21.8 201.78-21.6 200.83-21.2 199.88-20.8 198.73-20.1L198.73-20.1Z"
                                opacity="1" transform="matrix(1,0,0,1,0,0)" fill="#ed1703"
                                class="wordmark-text-0" data-fill-palette-color="primary"
                                id="text-0"></path>
                            </svg>
                          </g>
                        </svg>
                      </g>
                    </svg>
                  </g>
                </svg>
              </g>
              <g>
                <svg viewBox="0 0 92.71209856523163 120.40532281198912" height="120.40532281198912"
                  width="92.71209856523163">
                  <g>
                    <svg xmlns="http://www.w3.org/2000/svg"
                      xmlns:xlink="http://www.w3.org/1999/xlink" version="1.1" x="0" y="0"
                      viewBox="15.3 5 69.3 90" enable-background="new 0 0 100 100"
                      xml:space="preserve" height="120.40532281198912" width="92.71209856523163"
                      class="icon-icon-0" data-fill-palette-color="accent" id="icon-0"><path d="M35.6 86.9C35.6 91.4 32 95 27.5 95S19.4 91.4 19.4 86.9 23 78.8 27.5 78.8C28.9 78.8 30.2 79.2 31.4 79.8 31.5 79.7 31.6 79.6 31.8 79.7 31.9 79.8 32 79.9 31.9 80.1 34.1 81.5 35.6 84 35.6 86.9M27.5 45.9C27.5 42.6 24.8 39.8 21.4 39.8 18.1 39.8 15.3 42.5 15.3 45.9 15.3 49.2 18 52 21.4 52S27.5 49.2 27.5 45.9M34.8 19.1C35.6 19.1 36.3 19 37 18.7V18.9C37 19 37.1 19.1 37.3 19.1H37.4C37.5 19 37.6 18.9 37.6 18.7V18.6C40.2 17.5 42 15 42 12.1 42 8.2 38.8 5 34.9 5S27.8 8.2 27.8 12.1 30.9 19.1 34.8 19.1M79.6 5.8C76.8 5.8 74.5 8.1 74.5 10.9 74.5 12.4 75.2 13.7 76.2 14.7 76.1 14.7 76 14.7 75.9 14.8L75.8 14.9C75.7 15 75.7 15.2 75.8 15.3 75.9 15.3 75.9 15.4 76 15.4S76.2 15.4 76.2 15.3L76.3 15.2C76.4 15.1 76.4 15 76.3 14.9 77.2 15.6 78.3 16.1 79.5 16.1 82.3 16.1 84.6 13.8 84.6 11S82.4 5.8 79.6 5.8M78.6 33.2C76.4 33.2 74.6 35 74.6 37.2S76.4 41.2 78.6 41.2 82.6 39.4 82.6 37.2C82.7 35 80.8 33.2 78.6 33.2M65.4 62.9C63.9 62.9 62.5 63.4 61.3 64.2L61.2 64.1C61.1 64 61 64 60.8 64.1 60.7 64.2 60.7 64.4 60.7 64.5L60.8 64.6C59.2 65.9 58.3 67.8 58.3 70 58.3 73.9 61.5 77.1 65.4 77.1S72.5 73.9 72.5 70 69.3 62.9 65.4 62.9M59.1 47.5C59.1 41.4 54.1 36.4 48 36.4 46.7 36.4 45.4 36.6 44.3 37.1H44.2S44.1 37.1 44.1 37.2C39.9 38.8 37 42.8 37 47.6 37 51.8 39.4 55.5 42.9 57.4 42.9 57.5 42.9 57.6 43.1 57.7H43.2C43.3 57.7 43.3 57.7 43.4 57.6 44.9 58.3 46.5 58.7 48.2 58.7 54.2 58.6 59.1 53.6 59.1 47.5M35.5 46.8C35.3 46.8 35.2 46.9 35.2 47.1S35.3 47.4 35.5 47.4H35.6C35.8 47.4 35.9 47.3 35.9 47.1S35.8 46.8 35.6 46.8zM30.2 46.7C30.1 46.7 29.9 46.8 29.9 47S30 47.3 30.2 47.3H30.3C30.5 47.3 30.6 47.2 30.6 47S30.5 46.7 30.3 46.7zM32.1 47.3C32.3 47.3 32.4 47.2 32.4 47S32.3 46.7 32.1 46.7H32C31.8 46.7 31.7 46.8 31.7 47S31.8 47.3 32 47.3zM33.8 47.3H33.9C34.1 47.3 34.2 47.2 34.2 47S34.1 46.7 33.9 46.7H33.8C33.7 46.7 33.5 46.8 33.5 47S33.6 47.3 33.8 47.3M28.5 46.6C28.3 46.6 28.2 46.7 28.2 46.9S28.3 47.2 28.5 47.2H28.6C28.8 47.2 28.9 47.1 28.9 46.9S28.8 46.6 28.6 46.6zM38.3 66.7C38.2 66.6 38 66.7 37.9 66.8L37.8 66.9C37.7 67 37.8 67.2 37.9 67.3H38C38.1 67.3 38.2 67.2 38.3 67.1L38.4 67C38.5 66.9 38.4 66.7 38.3 66.7M39.9 63.4C39.8 63.3 39.6 63.4 39.5 63.5L39.4 63.6C39.3 63.7 39.4 63.9 39.5 64H39.6C39.7 64 39.8 63.9 39.9 63.8L40 63.7C40.1 63.7 40.1 63.5 39.9 63.4M39.1 65.1C39 65 38.8 65.1 38.7 65.2L38.6 65.3C38.5 65.4 38.6 65.6 38.7 65.7H38.8C38.9 65.7 39 65.6 39.1 65.5L39.2 65.4C39.3 65.3 39.3 65.1 39.1 65.1M41.6 60.2C41.5 60.1 41.3 60.2 41.2 60.3L41.1 60.4C41 60.5 41.1 60.7 41.2 60.8H41.3C41.4 60.8 41.5 60.7 41.6 60.6L41.7 60.5C41.8 60.4 41.7 60.2 41.6 60.2M42.4 58.5C42.3 58.4 42.1 58.5 42 58.6V58.8C41.9 58.9 42 59.1 42.1 59.2H42.2C42.3 59.2 42.4 59.1 42.5 59L42.6 58.9C42.6 58.8 42.5 58.6 42.4 58.5M40.8 61.8C40.7 61.7 40.5 61.8 40.4 61.9L40.3 62C40.2 62.1 40.3 62.3 40.4 62.4H40.5C40.6 62.4 40.7 62.3 40.8 62.2L40.9 62.1C41 62 40.9 61.9 40.8 61.8M37.5 68.3C37.4 68.2 37.2 68.3 37.1 68.4L37 68.6C36.9 68.7 37 68.9 37.1 69H37.2C37.3 69 37.4 68.9 37.5 68.8L37.6 68.7C37.7 68.5 37.6 68.4 37.5 68.3M33.4 76.4C33.3 76.3 33.1 76.4 33 76.5L32.9 76.6C32.8 76.7 32.9 76.9 33 77H33.1C33.2 77 33.3 76.9 33.4 76.8L33.5 76.7C33.6 76.7 33.5 76.5 33.4 76.4M36.7 69.9C36.6 69.8 36.4 69.9 36.3 70L36.2 70.1C36.1 70.2 36.2 70.4 36.3 70.5H36.4C36.5 70.5 36.6 70.4 36.7 70.3L36.8 70.2S36.8 70 36.7 69.9M33.9 75.4H34C34.1 75.4 34.2 75.3 34.3 75.2L34.4 75.1C34.5 75 34.4 74.8 34.3 74.7S34 74.7 33.9 74.8L33.8 74.9C33.7 75.2 33.7 75.4 33.9 75.4M32.2 78.7H32.3C32.4 78.7 32.5 78.6 32.6 78.5L32.7 78.4C32.8 78.3 32.7 78.1 32.6 78S32.3 78 32.2 78.1L32.1 78.2C32 78.4 32.1 78.6 32.2 78.7M34.6 73.3L34.5 73.4C34.4 73.5 34.5 73.7 34.6 73.8H34.7C34.8 73.8 34.9 73.7 35 73.6L35.1 73.5C35.2 73.4 35.1 73.2 35 73.1 34.9 73.1 34.7 73.2 34.6 73.3M35.8 71.6C35.7 71.5 35.5 71.6 35.4 71.7L35.3 71.8C35.2 71.9 35.3 72.1 35.4 72.2H35.5C35.6 72.2 35.7 72.1 35.8 72L35.9 71.9C36 71.8 36 71.6 35.8 71.6M58.7 61.3C58.6 61.4 58.6 61.6 58.6 61.7L58.7 61.8C58.8 61.9 58.8 61.9 58.9 61.9S59 61.9 59.1 61.8 59.2 61.5 59.2 61.4L59.1 61.3C59 61.2 58.8 61.2 58.7 61.3M58 59.9C57.9 59.8 57.7 59.8 57.6 59.8 57.5 59.9 57.5 60.1 57.6 60.2L57.7 60.3C57.8 60.4 57.8 60.4 57.9 60.4S58 60.4 58.1 60.3 58.2 60 58.1 59.9zM60.1 62.7C60 62.6 59.8 62.6 59.7 62.6 59.6 62.7 59.6 62.9 59.6 63L59.7 63.1C59.8 63.2 59.8 63.2 59.9 63.2S60 63.2 60.1 63.1 60.2 62.8 60.2 62.7zM56.9 58.5C56.8 58.4 56.6 58.4 56.5 58.4 56.4 58.5 56.4 58.7 56.4 58.8L56.5 58.9C56.6 59 56.6 59 56.7 59S56.8 59 56.9 58.9 57 58.6 57 58.5zM55.8 57.1C55.7 57 55.5 57 55.4 57 55.3 57.1 55.3 57.3 55.3 57.4L55.4 57.5C55.5 57.6 55.5 57.6 55.6 57.6S55.7 57.6 55.8 57.5 55.9 57.2 55.9 57.1zM70 40.4C70.1 40.4 70.1 40.4 70 40.4L70.2 40.3C70.3 40.3 70.4 40.1 70.4 39.9 70.4 39.8 70.2 39.7 70 39.7H69.9C69.8 39.7 69.7 39.9 69.7 40.1 69.8 40.3 69.9 40.4 70 40.4M68.1 40.8C68.1 40.9 68.2 41 68.4 41H68.6C68.7 41 68.8 40.8 68.8 40.6 68.8 40.5 68.6 40.4 68.4 40.4H68.3C68.1 40.5 68 40.6 68.1 40.8M66.6 41.5C66.7 41.5 66.7 41.5 66.6 41.5L66.8 41.4C66.9 41.4 67 41.2 67 41 67 40.9 66.8 40.8 66.6 40.8H66.5C66.4 40.8 66.3 41 66.3 41.2 66.4 41.5 66.5 41.5 66.6 41.5M61.5 43.2C61.6 43.2 61.6 43.2 61.5 43.2L61.7 43.1C61.8 43.1 61.9 42.9 61.9 42.7 61.9 42.6 61.7 42.5 61.5 42.5H61.4C61.3 42.5 61.2 42.7 61.2 42.9 61.3 43.2 61.4 43.2 61.5 43.2M73.5 38.7H73.4C73.3 38.7 73.2 38.9 73.2 39.1 73.2 39.2 73.3 39.3 73.5 39.3H73.7C73.8 39.3 73.9 39.1 73.9 38.9 73.8 38.7 73.6 38.6 73.5 38.7M71.5 39.6C71.5 39.7 71.6 39.8 71.8 39.8H72C72.1 39.8 72.2 39.6 72.2 39.4 72.2 39.3 72 39.2 71.8 39.2H71.7C71.5 39.3 71.4 39.5 71.5 39.6M63.3 42.1H63.2C63.1 42.1 63 42.3 63 42.5 63 42.6 63.1 42.7 63.3 42.7H63.5C63.6 42.7 63.7 42.5 63.7 42.3 63.6 42.1 63.4 42 63.3 42.1M59.9 43.2H59.8C59.7 43.2 59.6 43.4 59.6 43.6 59.6 43.7 59.7 43.8 59.9 43.8H60.1C60.2 43.8 60.3 43.6 60.3 43.4 60.2 43.3 60 43.2 59.9 43.2M64.7 41.9C64.7 42 64.8 42.1 65 42.1H65.2C65.3 42.1 65.4 41.9 65.4 41.7 65.4 41.6 65.2 41.5 65 41.5H64.9C64.7 41.6 64.6 41.8 64.7 41.9M75.1 16.5L75.2 16.4C75.3 16.3 75.3 16.1 75.2 16S74.9 15.9 74.8 16L74.7 16.1C74.6 16.2 74.6 16.4 74.7 16.5 74.8 16.5 74.8 16.6 74.9 16.6 74.9 16.6 75 16.6 75.1 16.5M63.2 30.2C63.3 30.2 63.4 30.2 63.4 30.1L63.5 30C63.6 29.9 63.6 29.7 63.5 29.6S63.2 29.5 63.1 29.6L63 29.7C62.9 29.8 62.9 30 63 30.1 63 30.1 63.1 30.2 63.2 30.2M73.6 17.4L73.5 17.5C73.4 17.6 73.4 17.8 73.5 17.9 73.6 17.9 73.6 18 73.7 18S73.9 18 73.9 17.9L74 17.8C74.1 17.7 74.1 17.5 74 17.4S73.7 17.3 73.6 17.4M56.2 38.3C56.3 38.3 56.4 38.3 56.4 38.2L56.5 38.1C56.6 38 56.6 37.8 56.5 37.7S56.2 37.6 56.1 37.7L56 37.8C55.9 37.9 55.9 38.1 56 38.2 56 38.3 56.1 38.3 56.2 38.3M59.7 34.2C59.8 34.2 59.9 34.2 59.9 34.1L60 34C60.1 33.9 60.1 33.7 60 33.6S59.7 33.5 59.6 33.6L59.5 33.7C59.4 33.8 59.4 34 59.5 34.1 59.5 34.2 59.6 34.2 59.7 34.2M57.3 37C57.4 37 57.5 37 57.5 36.9L57.6 36.8C57.7 36.7 57.7 36.5 57.6 36.4S57.3 36.3 57.2 36.4L57.1 36.5C57 36.6 57 36.8 57.1 36.9 57.2 36.9 57.3 37 57.3 37M60.8 32.9C60.9 32.9 61 32.9 61 32.8L61.1 32.7C61.2 32.6 61.2 32.4 61.1 32.3S60.8 32.2 60.7 32.3L60.6 32.4C60.5 32.5 60.5 32.7 60.6 32.8S60.8 32.9 60.8 32.9M69 23.4C69.1 23.4 69.2 23.4 69.2 23.3L69.3 23.2C69.4 23.1 69.4 22.9 69.3 22.8S69 22.7 68.9 22.8L68.8 22.9C68.7 23 68.7 23.2 68.8 23.3S69 23.4 69 23.4M62 31.5C62.1 31.5 62.2 31.5 62.2 31.4L62.3 31.3C62.4 31.2 62.4 31 62.3 30.9S62 30.8 61.9 30.9L61.8 31C61.7 31.1 61.7 31.3 61.8 31.4S61.9 31.5 62 31.5M64.3 28.8C64.4 28.8 64.5 28.8 64.5 28.7L64.6 28.6C64.7 28.5 64.7 28.3 64.6 28.2S64.3 28.1 64.2 28.2L64.1 28.3C64 28.4 64 28.6 64.1 28.7S64.3 28.8 64.3 28.8M67.9 24.7C68 24.7 68.1 24.7 68.1 24.6L68.2 24.5C68.3 24.4 68.3 24.2 68.2 24.1S67.9 24 67.8 24.1L67.7 24.2C67.6 24.3 67.6 24.5 67.7 24.6 67.7 24.7 67.8 24.7 67.9 24.7M66.7 26.1C66.8 26.1 66.9 26.1 66.9 26L67 25.9C67.1 25.8 67.1 25.6 67 25.5S66.7 25.4 66.6 25.5L66.5 25.6C66.4 25.7 66.4 25.9 66.5 26S66.6 26.1 66.7 26.1M72.4 18.7L72.3 18.8C72.2 18.9 72.2 19.1 72.3 19.2 72.4 19.2 72.4 19.3 72.5 19.3S72.7 19.3 72.7 19.2L72.8 19.1C72.9 19 72.9 18.8 72.8 18.7S72.5 18.6 72.4 18.7M70.2 22C70.3 22 70.4 22 70.4 21.9L70.5 21.8C70.6 21.7 70.6 21.5 70.5 21.4S70.2 21.3 70.1 21.4L70 21.6C69.9 21.7 69.9 21.9 70 22zM65.5 27.5C65.6 27.5 65.7 27.5 65.7 27.4L65.8 27.3C65.9 27.2 65.9 27 65.8 26.9S65.5 26.8 65.4 26.9L65.3 27C65.2 27.1 65.2 27.3 65.3 27.4 65.4 27.4 65.4 27.5 65.5 27.5M71.4 20.7C71.5 20.7 71.6 20.7 71.6 20.6L71.7 20.5C71.8 20.4 71.8 20.2 71.7 20.1S71.4 20 71.3 20.1L71.2 20.2C71.1 20.3 71.1 20.5 71.2 20.6 71.2 20.7 71.3 20.7 71.4 20.7M58.5 35.6C58.6 35.6 58.7 35.6 58.7 35.5L58.8 35.4C58.9 35.3 58.9 35.1 58.8 35S58.5 34.9 58.4 35L58.3 35.1C58.2 35.2 58.2 35.4 58.3 35.5S58.4 35.6 58.5 35.6M41 28.6C40.9 28.7 40.8 28.8 40.8 29V29.1C40.8 29.2 40.9 29.3 41.1 29.3H41.2C41.3 29.2 41.4 29.1 41.4 28.9V28.8C41.3 28.6 41.1 28.6 41 28.6M41.6 30.3C41.5 30.4 41.4 30.5 41.4 30.7V30.8C41.4 30.9 41.5 31 41.7 31H41.8C41.9 30.9 42 30.8 42 30.6V30.5C41.9 30.3 41.8 30.2 41.6 30.3M42.1 32.5C42.1 32.6 42.2 32.7 42.4 32.7H42.5C42.6 32.6 42.7 32.5 42.7 32.3V32.2C42.6 32.1 42.5 32 42.3 32 42.2 32.1 42.1 32.2 42.1 32.4zM43.4 35.8C43.4 35.9 43.5 36 43.7 36H43.8C43.9 35.9 44 35.8 44 35.6V35.5C43.9 35.4 43.8 35.3 43.6 35.3 43.5 35.4 43.4 35.5 43.4 35.7zM42.8 34.2C42.8 34.3 42.9 34.4 43.1 34.4H43.2C43.3 34.3 43.4 34.2 43.4 34V33.9C43.3 33.8 43.2 33.7 43 33.7 42.9 33.8 42.8 33.9 42.8 34.1zM39.7 25.2C39.6 25.3 39.5 25.4 39.5 25.6V25.7C39.5 25.8 39.6 25.9 39.8 25.9H39.9C40 25.8 40.1 25.7 40.1 25.5V25.4C40 25.3 39.9 25.2 39.7 25.2M37.9 20.2C37.8 20.3 37.7 20.4 37.7 20.6V20.7C37.7 20.8 37.8 20.9 38 20.9H38.1C38.2 20.8 38.3 20.7 38.3 20.5V20.4C38.2 20.2 38 20.1 37.9 20.2M39.1 23.5C39 23.6 38.9 23.7 38.9 23.9V24C38.9 24.1 39 24.2 39.2 24.2H39.3C39.4 24.1 39.5 24 39.5 23.8V23.7C39.4 23.6 39.3 23.5 39.1 23.5M38.5 21.9C38.4 22 38.3 22.1 38.3 22.3V22.4C38.3 22.5 38.4 22.6 38.6 22.6H38.7C38.8 22.5 38.9 22.4 38.9 22.2V22.1C38.8 21.9 38.6 21.8 38.5 21.9M40.4 26.9C40.3 27 40.2 27.1 40.2 27.3V27.4C40.2 27.5 40.3 27.6 40.5 27.6H40.6C40.7 27.5 40.8 27.4 40.8 27.2V27.1C40.7 26.9 40.5 26.9 40.4 26.9" fill="#ed1703" data-fill-palette-color="accent"></path></svg>
                  </g>
                </svg>
              </g>
            </svg>
          </g>
          <defs></defs>
        </svg>
        <rect width="395.52" height="94.46449659796671" fill="none" stroke="none"
          visibility="hidden"></rect>
      </g>
    </svg>
  </g>
</svg>